<?xml version="1.0" encoding="UTF-8"?>
<!DOCTYPE svg PUBLIC "-//W3C//DTD SVG 1.1//EN" "http://www.w3.org/Graphics/SVG/1.1/DTD/svg11.dtd">
<!-- Creator: CorelDRAW 2018 (64-Bit) -->
<svg xmlns="http://www.w3.org/2000/svg" xml:space="preserve" width="210mm" height="100mm" version="1.1" style="shape-rendering:geometricPrecision; text-rendering:geometricPrecision; image-rendering:optimizeQuality; fill-rule:evenodd; clip-rule:evenodd"
viewBox="0 0 21000 10000"
 xmlns:xlink="http://www.w3.org/1999/xlink">
 <defs>
  <style type="text/css">
   <![CDATA[
    .fil0 {fill:#EEDBC8;fill-rule:nonzero}
    .fil1 {fill:#1F1E1F;fill-rule:nonzero}
   ]]>
  </style>
 </defs>
 <g id="Слой_x0020_1">
  <metadata id="CorelCorpID_0Corel-Layer"/>
  <g id="_1549019686992">
   <path class="fil0" d="M8434.23 2065.87c-167.35,0 -294.52,54.48 -381.47,163.45 -86.96,108.97 -130.44,249.3 -130.44,421.01l0 2852.99 -143.56 0.81 -2524.29 -2963.59 0 1991.96c0,204.74 41.01,373.14 123.05,505.22 95.17,165.1 237.91,247.66 428.23,247.66l0 138.68 -1210.86 0 0 -138.68c177.2,0 313.38,-107.32 408.54,-321.96 75.48,-165.1 113.22,-350.01 113.22,-554.74l0 -2025.82c-190.33,-211.34 -383.94,-316.99 -580.83,-316.99l0 -138.7 1018.9 0 2224.86 2605.33 0 -1753.39c0,-171.71 -68.09,-333.51 -204.28,-485.41 -136.18,-151.89 -289.59,-227.83 -460.22,-227.83l0 -138.7 1319.15 0 0 138.7z"/>
   <path class="fil0" d="M11116.86 4453.58c0,283.98 -113.21,513.47 -339.64,688.48 -180.48,138.7 -441.35,224.54 -782.63,257.56 -91.89,6.6 -370.81,9.92 -836.79,9.92l0 1050.05c0,178.31 64,293.88 191.98,346.72 62.34,23.11 205.09,39.62 428.23,49.53l0 138.68 -1791.7 0 0 -138.68c216.59,-6.61 354.41,-24.77 413.47,-54.5 98.45,-52.82 147.68,-176.65 147.68,-371.47l0 -2218.99c0,-257.56 -27.91,-414.41 -83.69,-470.55 -55.79,-56.13 -214.94,-90.8 -477.46,-104l0 -138.7 1693.26 0c387.21,0 703.87,62.74 949.98,188.22 324.88,161.8 487.31,417.71 487.31,767.73zm-669.42 -9.9c0,-260.86 -75.48,-460.64 -226.43,-599.33 -150.94,-138.69 -357.68,-208.02 -620.2,-208.02 -200.18,0 -328.15,44.57 -383.93,133.73 -39.38,66.04 -59.08,206.37 -59.08,421.01l0 1079.77 344.56 0c315.03,0 546.37,-57.78 694.04,-173.36 167.36,-128.78 251.04,-346.72 251.04,-653.8z"/>
  </g>
  <g id="_1549019683504">
   <path class="fil1" d="M3453.31 5037.45c-99.9,0 -194.09,-10.65 -282.59,-31.96 -88.51,-21.31 -165.88,-53.54 -232.12,-96.71 -66.23,-43.16 -118.64,-98.34 -157.19,-165.54 -38.54,-67.2 -57.82,-146.7 -57.82,-238.49 0,-102.71 23.08,-195.04 69.23,-277 46.16,-81.95 106.96,-151.88 182.43,-209.79 75.47,-57.92 161.52,-102.45 258.18,-133.59 96.64,-31.15 195.45,-46.72 296.45,-46.72 66.24,0 130.57,7.65 193.01,22.95 62.44,15.3 118.1,38.79 166.96,70.48 48.87,31.7 87.96,71.85 117.28,120.48 29.31,48.62 43.97,106.26 43.97,172.91 0,51.37 -12.76,98.9 -38.27,142.61 -25.52,43.7 -58.37,81.67 -98.55,113.91 -40.17,32.23 -84.69,57.09 -133.57,74.57 -48.86,17.48 -96.64,26.22 -143.33,26.22 -14.12,0 -28.23,-1.63 -42.35,-4.91 -14.12,-3.28 -19.55,-7.65 -16.29,-13.11 1.09,-2.19 5.97,-1.92 14.66,0.81 8.69,2.74 23.35,4.1 43.98,4.1 46.69,0 92.3,-8.74 136.82,-26.22 44.53,-17.48 84.16,-41.52 118.91,-72.12 34.75,-30.59 62.71,-66.92 83.88,-108.99 21.18,-42.07 31.76,-87.7 31.76,-136.87 0,-66.65 -13.03,-123.47 -39.09,-170.46 -26.06,-46.98 -61.08,-85.5 -105.05,-115.56 -43.98,-30.05 -95.03,-51.9 -153.12,-65.56 -58.1,-13.66 -119.17,-20.49 -183.24,-20.49 -98.83,0 -191.94,15.3 -279.35,45.9 -87.41,30.59 -163.98,73.49 -229.67,128.67 -65.7,55.18 -117.55,121.56 -155.55,199.14 -38.02,77.59 -57.02,163.36 -57.02,257.33 0,90.7 15.47,169.93 46.43,237.67 30.95,67.75 74.93,124.02 131.93,168.82 57.01,44.81 125.42,78.14 205.24,99.99 79.81,21.85 168.58,32.78 266.31,32.78 107.51,0 210.67,-10.65 309.48,-31.96 98.83,-21.31 193.57,-51.08 284.24,-89.34 90.68,-38.24 177.28,-83.31 259.8,-135.22 82.53,-51.9 160.72,-108.44 234.56,-169.64 67.32,-55.73 132.47,-117.19 195.45,-184.39 63,-67.2 121.9,-135.77 176.74,-205.71 54.84,-69.93 104.78,-139.04 149.85,-207.33 45.07,-68.31 83.35,-131.41 114.84,-189.32 15.2,-28.41 27.42,-51.9 36.65,-70.48 9.23,-18.57 23.07,-38.79 41.53,-60.64 6.52,-7.65 13.3,-15.3 20.36,-22.95 7.06,-7.64 17.1,-11.47 30.13,-11.47 10.86,0 17.92,4.37 21.18,13.11 3.26,8.75 2.17,15.85 -3.26,21.31 -18.46,15.3 -32.58,28.14 -42.35,38.52 -9.77,10.38 -17.37,21.58 -22.8,33.6 -6.52,16.39 -11.67,37.69 -15.47,63.92 -3.81,26.22 -7.06,57.09 -9.78,92.6 -2.71,35.51 -5.7,75.41 -8.96,119.66 -3.25,44.25 -7.6,92.6 -13.03,145.05 -4.34,41.52 -9.77,84.14 -16.28,127.86 -6.52,43.7 -13.85,86.32 -21.99,127.84 -8.15,41.52 -16.56,81.4 -25.25,119.65 -8.69,38.24 -16.83,72.67 -24.43,103.26 20.63,-34.96 51.31,-82.5 92.03,-142.6 40.72,-60.1 86.86,-124.29 138.44,-192.58 51.58,-68.31 106.16,-136.6 163.71,-204.89 57.55,-68.29 113.47,-128.12 167.76,-179.48 57.55,-54.64 117.56,-105.99 180,-154.07 62.43,-48.08 126.5,-89.87 192.19,-125.38 65.71,-35.53 132.76,-63.66 201.17,-84.42 68.41,-20.76 137.9,-31.14 208.5,-31.14 39.09,0 80.08,4.09 122.97,12.29 42.89,8.19 82.25,20.76 118.09,37.7 35.84,16.93 65.43,39.07 88.78,66.39 23.34,27.31 35.02,60.09 35.02,98.34 0,38.24 -13.85,70.2 -41.54,95.88 -27.69,25.68 -58.92,41.25 -93.66,46.71 -5.43,1.09 -11.95,1.37 -19.55,0.82 -7.6,-0.55 -11.4,-1.91 -11.4,-4.1 0,-2.18 1.9,-3.28 5.7,-3.28 3.8,0 11.13,-3.27 21.99,-9.83 22.8,-15.3 38.29,-33.33 46.43,-54.09 8.15,-20.76 12.22,-44.8 12.22,-72.11 0,-32.78 -8.69,-61.47 -26.08,-86.05 -17.37,-24.59 -39.9,-45.07 -67.59,-61.48 -27.69,-16.39 -58.37,-28.68 -92.03,-36.87 -33.66,-8.2 -66.78,-12.3 -99.35,-12.3 -70.6,0 -140.09,10.11 -208.5,30.33 -68.41,20.21 -134.92,48.09 -199.54,83.6 -64.61,35.51 -127.59,77.3 -188.94,125.38 -61.35,48.08 -120.27,99.43 -176.73,154.08 -53.21,51.35 -109.4,111.72 -168.58,181.11 -59.18,69.38 -117.02,142.05 -173.48,218 -56.47,75.94 -109.67,152.15 -159.62,228.64 -49.95,76.5 -92.31,146.97 -127.06,211.44 -4.34,8.74 -8.14,17.21 -11.4,25.41 -3.26,8.19 -9.77,12.29 -19.55,12.29 -10.85,0 -15.47,-6.83 -13.84,-20.49 1.63,-13.66 4.07,-25.4 7.33,-35.24 18.46,-53.54 33.12,-123.74 43.98,-210.62 10.85,-86.87 22.8,-184.94 35.84,-294.21 4.34,-36.06 9.23,-75.4 14.66,-118.01 5.43,-42.62 11.4,-83.59 17.92,-122.93 6.51,-39.33 12.76,-75.12 18.73,-107.36 5.97,-32.24 12.21,-56 18.73,-71.3 -31.49,55.73 -68.68,116.65 -111.58,182.76 -42.9,66.11 -90.67,133.03 -143.34,200.78 -52.66,67.76 -109.94,134.95 -171.85,201.61 -61.89,66.65 -127.59,128.39 -197.08,185.22 -74.92,62.28 -154.2,119.37 -237.82,171.27 -83.61,51.9 -171.29,96.43 -263.06,133.58 -91.75,37.16 -187.85,66.12 -288.3,86.88 -100.45,20.76 -204.96,31.14 -313.56,31.14l-1.63 0zm2231.53 -750.69c0,15.3 -10.59,30.6 -31.76,45.9 -21.18,15.29 -39.91,22.94 -56.2,22.94 -4.34,-4.37 -6.51,-14.2 -6.51,-29.5 0,-38.24 23.89,-57.38 71.66,-57.38 15.21,0 22.81,6.01 22.81,18.04zm-96.1 319.62c0,12.02 -36.92,46.99 -110.76,104.9 -57.56,44.8 -104.8,67.2 -141.72,67.2 -32.57,0 -48.86,-12.57 -48.86,-37.7 0,-25.13 19,-62.28 57.01,-111.45 31.49,-41.54 61.35,-73.77 89.58,-96.72l0 -1.63c-17.37,12.01 -43.43,31.68 -78.18,59 -13.03,12.02 -32.58,28.97 -58.64,50.82 -6.51,4.37 -11.94,6.56 -16.28,6.56l-1.63 -3.28c10.86,-25.13 46.15,-57.11 105.87,-95.9 59.72,-38.79 104.8,-58.18 135.2,-58.18 7.6,0 14.12,1.09 19.54,3.28l0 3.28c0,2.18 -27.68,36.87 -83.08,104.07 -55.37,67.21 -83.06,109.55 -83.06,127.04 1.08,3.28 2.71,6.55 4.88,9.83 2.17,3.28 5.43,4.92 9.78,4.92 18.73,0 53.47,-22.13 104.25,-66.38 51.04,-44.25 83.61,-68.02 97.73,-71.3l-1.63 1.64zm845.38 -727.75c0,42.61 -36.92,97.8 -110.77,165.55 -102.08,93.97 -197.63,176.47 -286.68,247.5 -47.78,34.97 -95.02,69.93 -141.71,104.9 -58.63,43.7 -101.53,80.85 -128.67,111.45 -18.46,20.76 -40.73,50.26 -66.79,88.51 -31.49,48.08 -52.67,78.68 -63.53,91.79l3.26 1.64c70.58,-65.01 119.46,-107.37 146.6,-127.31 68.41,-51.63 125.42,-77.58 171.03,-77.58 46.69,0 70.03,16.12 70.03,48.08 0,24.31 -13.84,39.34 -41.53,44.8 -27.69,5.74 -54.56,10.65 -80.62,15.02 -28.24,11.22 -42.35,33.89 -42.35,68.03 0,52.18 10.86,78.13 32.57,78.13 22.81,0 59.72,-22.13 110.76,-66.38 51.05,-44.25 80.37,-66.93 87.97,-68.02l0 3.28c0,12.29 -37.47,47.53 -112.4,105.99 -55.38,42.89 -102.07,64.47 -140.08,64.47 -36.92,0 -55.38,-22.95 -55.38,-68.57 0,-48.9 14.12,-83.86 42.35,-104.89 10.86,-7.94 36.92,-18.59 78.18,-31.98 28.24,-8.74 42.35,-22.67 42.35,-41.52 0,-17.75 -8.14,-26.77 -24.43,-26.77 -40.18,0 -108.31,45.62 -204.42,136.87 -96.1,91.24 -155.55,136.86 -178.36,136.86 -13.03,0 -21.71,-1.64 -26.06,-4.92l0 -6.83c-2.17,-26.77 36.38,-90.69 115.65,-191.5l0 -1.64c-40.18,40.44 -64.61,60.65 -73.3,60.65 -2.17,0 -3.26,-0.54 -3.26,-1.63 1.09,-7.65 17.92,-25.68 50.5,-54.1 40.17,-34.97 60.8,-53 61.89,-54.09 20.63,-27.32 51.58,-67.2 92.85,-119.65 85.79,-109.26 181.34,-217.45 286.67,-324.53 159.63,-163.91 271.48,-245.86 335.55,-245.86 34.75,0 52.13,14.75 52.13,44.25zm-42.35 6.55c0,-20.76 -9.23,-31.14 -27.7,-31.14 -67.33,0 -257.9,203.8 -571.72,611.38l0 1.63c110.76,-92.6 221.51,-185.75 332.28,-279.46 178.08,-157.07 267.14,-257.88 267.14,-302.41zm107.5 722.84c0,13.11 -20.63,32.78 -61.9,59 -41.26,26.23 -70.04,39.34 -86.32,39.34 -14.12,0 -23.89,-1.64 -29.32,-4.92 -76.01,53.54 -137.92,80.31 -185.7,80.31 -53.2,0 -79.81,-20.21 -79.81,-60.64 0,-40.43 15.21,-78.12 45.61,-113.09l0 -1.64c-28.23,28.41 -45.61,42.62 -52.12,42.62 -1.09,0 -1.63,-0.55 -1.63,-1.64l0 -3.28c0,0 0.54,-2.19 1.63,-6.56 33.66,-36.07 79.27,-69.94 136.82,-101.63 61.9,-32.78 115.11,-49.71 159.63,-50.81l9.77 8.2c-1.08,1.09 -7.05,4.37 -17.91,9.83 -35.84,17.48 -78.73,51.9 -128.69,103.27 -55.38,56.82 -83.07,102.17 -83.07,136.04 0,15.3 7.6,22.94 22.81,22.94 42.34,0 92.85,-33.6 151.48,-101.07 14.12,-57.64 41.27,-95.07 81.44,-112.83 3.26,-7.92 4.89,-21.58 4.89,-41.52 0,-2.18 -0.81,-5.19 -2.44,-9.01 -1.63,-3.83 -2.45,-7.11 -2.45,-9.29 0,-4.37 3.26,-6.56 9.78,-6.56 9.77,0 18.18,6.83 25.24,20.76 7.06,13.94 10.59,26.5 10.59,37.43 0,39.06 -30.95,87.7 -92.84,146.7 3.26,1.09 6.51,1.64 9.77,1.64 24.98,0 53.21,-13.11 84.7,-39.34 35.83,-29.5 58.64,-45.34 68.41,-47.53 1.08,1.09 1.63,2.19 1.63,3.28zm835.6 -729.39c0,40.43 -37.19,95.89 -111.58,166.37 -74.38,70.48 -255.99,224.82 -544.84,463.03 -14.12,10.93 -38.82,45.89 -74.13,104.91 -35.29,59 -52.93,96.15 -52.93,111.45l3.26 8.19c4.34,4.37 8.68,6.56 13.03,6.56 36.91,0 97.19,-41.52 180.8,-124.56l21.18 -9.84 0 3.28c0,10.93 -36.92,45.89 -110.76,104.35 -56.48,43.98 -105.34,66.11 -146.6,66.11 -33.66,0 -50.5,-12.57 -50.5,-37.97 0,-33.06 29.87,-90.97 89.59,-173.48l-1.63 0c-47.78,44.81 -74.93,67.21 -81.44,67.21 -1.09,-1.09 -1.63,-1.63 -1.63,-1.63 1.09,-8.75 19,-27.87 53.75,-57.38 21.72,-18.58 43.44,-37.15 65.15,-55.73 18.46,-24.04 46.69,-60.09 84.71,-108.17 308.4,-384.63 513.08,-576.95 614.07,-576.95 33.67,0 50.5,14.75 50.5,44.25zm-40.72 6.55c0,-20.76 -9.24,-31.14 -27.7,-31.14 -40.18,0 -138.45,92.06 -294.81,276.19 -114.03,133.03 -203.07,244.77 -267.13,335.19l0 1.63c111.84,-95.88 223.68,-192.32 335.54,-289.29 169.39,-152.7 254.1,-250.23 254.1,-292.58zm449.56 911.33c41.26,0 90.41,-1.37 147.42,-4.1 57,-2.73 115.64,-6.01 175.9,-9.84 60.27,-3.82 119.73,-8.19 178.37,-13.11 58.64,-4.92 110.21,-10.11 154.73,-15.57 -90.12,-10.93 -182.96,-22.4 -278.53,-34.42 -95.56,-12.02 -187.85,-23.22 -276.89,-33.6 -89.06,-10.38 -171.58,-19.12 -247.59,-26.22 -76.01,-7.1 -139,-11.2 -188.95,-12.29 -118.36,-2.19 -207.67,1.64 -267.95,11.47 -60.27,9.83 -90.4,28.41 -90.4,55.73 0,19.66 20.09,34.96 60.27,45.89 40.17,10.92 92.85,19.12 158,24.58 65.15,5.47 139.26,8.74 222.34,9.84 83.07,1.09 166.95,1.64 251.65,1.64l1.63 0zm-3.26 16.39c-86.87,0 -173.47,-0.55 -259.8,-1.64 -86.33,-1.1 -164.24,-4.65 -233.73,-10.66 -69.5,-6.01 -125.7,-15.57 -168.6,-28.68 -42.89,-13.11 -64.33,-32.23 -64.33,-57.36 0,-33.88 35.02,-56.55 105.05,-68.02 70.05,-11.48 166.97,-16.12 290.76,-13.93 78.19,2.18 161.8,6.82 250.84,13.93 89.04,7.1 182.44,15.57 280.16,25.4 97.73,9.84 198.73,19.67 302.97,29.5 104.24,9.84 211.2,18.03 320.88,24.59 31.49,-7.65 60.81,-15.57 87.96,-23.77 27.14,-8.19 53.75,-18.03 79.81,-29.5 26.06,-11.47 52.39,-24.58 79.01,-39.34 26.6,-14.75 54.56,-31.97 83.88,-51.64 52.12,-34.96 97.18,-71.57 135.19,-109.81 38,-38.24 73.84,-78.67 107.51,-121.29 33.66,-42.61 67.6,-87.69 101.8,-135.22 34.2,-47.54 73.57,-98.07 118.09,-151.61 81.44,-97.25 160.17,-176.48 236.18,-237.67 76.01,-61.19 153.11,-114.73 231.3,-160.62 -36.92,-39.34 -86.06,-68.03 -147.41,-86.06 -61.35,-18.03 -126.23,-27.04 -194.64,-27.04 -58.65,0 -116.75,5.46 -174.3,16.39 -57.55,10.92 -114.01,25.67 -169.39,44.25 -55.39,18.59 -108.6,40.99 -159.63,67.21 -51.04,26.22 -98.27,54.63 -141.71,85.23 -42.35,29.5 -82.54,61.73 -120.54,96.7 -38.01,34.96 -71.12,71.3 -99.36,109 -28.23,37.7 -50.49,75.94 -66.78,114.73 -16.28,38.79 -24.43,76.76 -24.43,113.92 0,62.28 17.38,109.55 52.12,141.78 34.75,32.23 81.44,48.35 140.08,48.35 58.63,0 117.01,-15.02 175.11,-45.07 58.09,-30.05 107.77,-75.13 149.03,-135.23 21.72,-31.69 39.36,-63.38 52.93,-95.06 13.58,-31.69 20.38,-62.29 20.38,-91.79 0,-31.68 -7.89,-59.27 -23.63,-82.78 -15.75,-23.49 -40.99,-35.24 -75.74,-35.24 -17.38,0 -33.12,2.73 -47.24,8.2 -7.6,3.28 -11.4,4.92 -11.4,4.92 -1.08,-1.1 1.63,-3.83 8.15,-8.2 15.2,-9.83 33.66,-14.75 55.38,-14.75 38,0 70.85,12.29 98.55,36.88 27.69,24.59 41.53,57.65 41.53,99.17 0,38.24 -8.41,74.57 -25.24,108.99 -16.83,34.42 -39.38,66.93 -67.61,97.52 -52.12,55.74 -108.04,97.53 -167.77,125.4 -59.72,27.86 -120.54,41.79 -182.43,41.79 -64.07,0 -114.83,-17.75 -152.29,-53.27 -37.47,-35.51 -56.2,-86.05 -56.2,-151.61 0,-41.53 7.88,-83.32 23.62,-125.39 15.75,-42.07 37.46,-82.77 65.15,-122.1 27.69,-39.35 60.81,-77.32 99.36,-113.93 38.55,-36.6 80.08,-69.65 124.61,-99.16 45.61,-30.59 94.47,-58.18 146.59,-82.77 52.13,-24.58 106.42,-45.63 162.89,-63.11 56.47,-17.48 114.29,-31.14 173.47,-40.97 59.18,-9.84 118.09,-14.76 176.74,-14.76 66.23,0 131.93,9.29 197.08,27.87 65.15,18.57 119.46,48.62 162.89,90.15 27.15,-15.29 56.46,-29.77 87.95,-43.44 31.49,-13.66 63.8,-25.41 96.92,-35.24 33.12,-9.83 66.79,-17.75 100.99,-23.76 34.21,-6.01 67.6,-9.02 100.17,-9.02 21.72,0 32.58,2.73 32.58,8.2 -1.09,3.27 -3.8,4.64 -8.14,4.09 -4.35,-0.54 -12.49,-0.82 -24.44,-0.82 -30.4,0 -62.16,3.28 -95.28,9.84 -33.12,6.55 -65.98,15.02 -98.55,25.4 -32.58,10.38 -64.07,22.4 -94.47,36.07 -30.41,13.66 -58.1,27.59 -83.07,41.8 42.35,43.7 65.69,98.34 70.04,163.9 2.17,43.7 -6.79,86.86 -26.88,129.49 -20.09,42.61 -47.5,81.4 -82.25,116.37 -41.26,38.24 -88.78,69.38 -142.53,93.42 -53.75,24.04 -104.52,36.06 -152.29,36.06 -16.29,0 -31.77,-3.55 -46.42,-10.65 -14.66,-7.11 -21.99,-18.31 -21.99,-33.6 0,-14.21 6.78,-27.05 20.36,-38.52 13.57,-11.47 29.04,-20.49 46.42,-27.04 13.03,-4.37 19.54,-6.01 19.54,-4.92 0,0 -5.97,3.28 -17.91,9.83 -11.95,6.56 -21.99,14.48 -30.14,23.77 -8.14,9.29 -12.21,21.03 -12.21,35.24 0,13.11 5.43,22.12 16.29,27.04 10.85,4.92 23.88,7.38 39.09,7.38 19.54,0 40.17,-3.83 61.89,-11.48 21.72,-7.64 43.71,-18.02 65.97,-31.14 22.26,-13.11 43.97,-28.95 65.15,-47.53 21.17,-18.57 40.46,-38.79 57.83,-60.64 30.41,-36.06 54.02,-75.4 70.85,-118.02 16.83,-42.62 24.16,-84.68 21.99,-126.2 -3.26,-48.08 -17.91,-88.51 -43.98,-121.29 -73.85,45.89 -143.07,104.9 -207.68,177.01 -64.61,72.12 -129.49,150.26 -194.65,234.39 -41.26,53.54 -78.72,101.62 -112.39,144.23 -33.66,42.63 -66.23,81.69 -97.72,117.2 -31.49,35.52 -63.53,68.57 -96.1,99.16 -32.59,30.6 -68.42,60.65 -107.51,90.15 -68.41,52.45 -136.01,92.07 -202.79,118.84 -66.79,26.77 -134.38,49.44 -202.79,68.02 45.6,2.18 91.21,3.82 136.81,4.91 45.62,1.1 91.77,1.64 138.46,1.64 46.7,0 91.76,-0.27 135.19,-0.82 43.44,-0.54 84.7,-3 123.8,-7.37 39.09,-4.37 76.83,-11.48 113.2,-21.31 36.38,-9.83 70.86,-24.04 103.43,-42.61 45.61,-25.14 83.9,-56.82 114.84,-95.08 30.95,-38.24 52.4,-79.76 64.34,-124.56 5.43,-17.48 8.14,-29.5 8.14,-36.06 0,-6.56 1.63,-9.83 4.89,-9.83 3.26,0 4.34,5.73 3.26,17.21 -1.09,11.47 -2.72,23.21 -4.89,35.23 -11.94,46.99 -31.76,90.7 -59.45,131.12 -27.69,40.44 -66.52,76.5 -116.47,108.19 -62.98,38.24 -136,65.83 -219.07,82.77 -83.08,16.94 -175.65,25.4 -277.72,25.4 -45.61,0 -105.61,-3.55 -179.99,-10.65 -74.39,-7.1 -157.18,-16.12 -248.41,-27.04 -54.29,8.74 -113.74,16.39 -178.35,22.94 -64.61,6.56 -129.22,12.02 -193.84,16.39 -64.61,4.37 -126.5,7.65 -185.68,9.84 -59.18,2.18 -111.04,3.28 -155.56,3.28l-1.63 0zm2213.61 -526.14c0,15.3 -10.59,30.6 -31.76,45.9 -21.18,15.29 -39.91,22.94 -56.2,22.94 -4.34,-4.37 -6.51,-14.2 -6.51,-29.5 0,-38.24 23.89,-57.38 71.66,-57.38 15.21,0 22.81,6.01 22.81,18.04zm-96.1 319.62c0,12.02 -36.92,46.99 -110.76,104.9 -57.56,44.8 -104.8,67.2 -141.71,67.2 -32.58,0 -48.87,-12.57 -48.87,-37.7 0,-25.13 19,-62.28 57.01,-111.45 31.49,-41.54 61.35,-73.77 89.58,-96.72l0 -1.63c-17.37,12.01 -43.43,31.68 -78.18,59 -13.03,12.02 -32.58,28.97 -58.64,50.82 -6.51,4.37 -11.94,6.56 -16.28,6.56l-1.63 -3.28c10.86,-25.13 46.15,-57.11 105.87,-95.9 59.72,-38.79 104.8,-58.18 135.2,-58.18 7.6,0 14.12,1.09 19.55,3.28l0 3.28c0,2.18 -27.69,36.87 -83.08,104.07 -55.38,67.21 -83.07,109.55 -83.07,127.04 1.08,3.28 2.71,6.55 4.88,9.83 2.18,3.28 5.43,4.92 9.78,4.92 18.73,0 53.47,-22.13 104.25,-66.38 51.04,-44.25 83.61,-68.02 97.73,-71.3l-1.63 1.64zm573.36 0c0,4.37 -17.38,21.58 -52.12,51.36 -29.32,26.49 -50.5,44.52 -63.54,54.63 -58.64,43.98 -107.5,66.11 -146.59,66.11 -32.58,0 -48.86,-11.2 -48.86,-33.33 0,-28.68 24.16,-71.84 72.48,-129.21 48.32,-57.65 72.48,-89.06 72.48,-94.8 0,-5.46 -3.8,-8.19 -11.4,-8.19 -32.58,0 -100.72,44.25 -204.42,132.77 -103.71,88.5 -164.79,132.76 -183.25,132.76 -18.46,0 -27.69,-3.28 -27.69,-10.11 0,-15.57 26.06,-59.01 78.19,-130.3 52.12,-71.31 78.72,-107.37 79.81,-108.46 -2.18,-6.83 -5.43,-10.11 -9.78,-10.11 -18.46,0 -51.57,21.58 -99.35,64.74 -47.78,43.17 -72.21,64.76 -73.3,64.76 -4.34,0 -6.51,-2.19 -6.51,-6.56 0,-12.29 30.13,-41.53 90.39,-87.7 60.27,-46.44 103.44,-69.66 129.51,-69.66 27.14,0 40.71,12.57 40.71,37.97 0,18.85 -34.74,73.76 -104.25,165.28l4.89 1.64c159.63,-136.6 265.5,-204.89 317.62,-204.89 33.66,0 50.51,12.02 50.51,36.33 0,19.67 -21.19,56 -63.54,108.74 -42.35,52.99 -63.52,86.32 -63.52,100.8l1.63 6.55c3.26,1.09 7.06,1.64 11.4,1.64 23.89,0 62.98,-22.67 117.28,-68.02 54.3,-45.34 82.53,-68.02 84.7,-68.02 2.17,1.1 3.8,1.92 4.89,2.46 1.08,0.55 1.63,0.82 1.63,0.82zm845.37 -727.75c0,42.61 -36.92,97.8 -110.77,165.55 -91.21,84.14 -230.2,201.6 -416.98,352.4 -33.66,24.04 -80.35,61.19 -140.07,111.45 -19.55,19.67 -42.36,49.17 -68.42,88.51 -20.64,30.6 -40.72,61.2 -60.27,91.79l4.89 1.64c159.63,-136.6 265.5,-204.89 317.62,-204.89 33.66,0 50.49,12.3 50.49,36.61 0,19.94 -21.17,56.27 -63.52,109.55 -42.35,52.99 -63.52,86.87 -63.52,101.34l1.63 6.56c3.26,1.09 7.06,1.64 11.4,1.64 22.8,0 61.35,-22.4 115.64,-67.2 54.31,-44.8 84.17,-67.75 89.6,-68.84l0 3.28c0,2.19 -4.34,8.2 -13.03,18.3 -32.58,34.15 -70.05,66.11 -112.4,95.88 -54.29,37.43 -98.27,56.28 -131.93,56.28 -33.66,0 -50.49,-11.2 -50.49,-33.33 0,-28.68 24.16,-71.84 72.48,-129.21 48.32,-57.65 72.48,-89.06 72.48,-94.8 0,-5.46 -3.8,-8.19 -11.4,-8.19 -32.58,0 -100.72,44.25 -204.43,132.77 -103.7,88.5 -164.78,132.76 -183.24,132.76 -18.46,0 -27.69,-3.28 -27.69,-10.11 0,-11.2 17.92,-43.71 53.75,-97.25 28.24,-43.71 51.04,-76.77 68.41,-99.17l0 -1.64c-45.6,42.63 -71.66,63.93 -78.18,63.93 -1.09,-1.09 -1.63,-1.63 -1.63,-1.63 1.09,-8.75 17.92,-27.32 50.49,-55.74 21.72,-17.49 42.9,-34.97 63.53,-52.45 1.08,-1.09 32.03,-40.98 92.85,-119.65 83.61,-109.26 181.34,-220.18 293.19,-332.73 156.37,-158.45 265.5,-237.66 327.4,-237.66 34.75,0 52.12,14.75 52.12,44.25zm-42.35 6.55c0,-20.76 -9.22,-31.14 -27.7,-31.14 -44.52,0 -145.5,91.51 -302.95,274.55 -112.94,131.94 -202.53,244.22 -268.76,336.83l0 1.63c110.75,-92.6 221.51,-185.75 332.28,-279.46 178.08,-157.07 267.13,-257.88 267.13,-302.41zm182.44 719.56c0,10.93 -37.47,46.99 -112.4,107.63 -54.29,43.98 -100.98,66.11 -140.07,66.11 -31.49,0 -47.24,-13.39 -47.24,-40.16 0,-19.94 7.6,-38.24 22.81,-54.91l-1.63 0c-68.42,63.38 -129.78,95.07 -184.07,95.07 -41.26,0 -61.89,-18.31 -61.89,-54.64 0,-31.96 15.2,-65.83 45.6,-101.07l-1.63 0c-16.28,17.48 -26.6,26.23 -30.94,26.23 -2.17,0 -3.8,-0.55 -4.89,-1.64l0 -3.28c0,0 0.54,-2.19 1.63,-6.56 27.15,-32.78 72.48,-66.39 136,-100.81 63.54,-34.42 114.3,-51.63 152.31,-51.63 38,0 57.01,14.21 57.01,42.62 0,6.55 -1.09,13.66 -3.26,21.3l1.63 0c36.92,-42.61 70.58,-63.92 100.98,-63.92 14.12,0 21.18,1.64 21.18,4.92 0,3.28 -27.69,38.79 -83.07,106.54 -55.38,67.48 -83.07,112.28 -83.07,134.41l3.26 8.19c3.25,1.09 7.05,1.64 11.4,1.64 22.8,0 60.53,-22.67 113.2,-68.02 52.66,-45.35 81.17,-68.56 85.52,-69.66 1.09,1.1 1.63,1.64 1.63,1.64zm-184.06 -70.49c0,-19.66 -10.32,-29.5 -30.95,-29.5 -28.23,0 -75.2,31.69 -140.9,95.06 -65.7,63.39 -98.54,108.19 -98.54,134.41 0,13.12 7.05,19.67 21.17,19.67 31.49,0 80.9,-29.5 148.23,-88.5 67.32,-59.01 100.99,-102.73 100.99,-131.14zm555.42 68.85c0,5.74 -16.28,22.95 -48.86,51.9 -95.55,84.41 -192.75,126.75 -291.56,126.75 -66.24,0 -99.36,-26.77 -99.36,-80.31 0,-24.04 7.87,-46.98 23.62,-68.83 15.74,-21.86 35.02,-32.8 57.82,-32.8 23.89,0 35.83,8.21 35.83,24.6 0,16.39 -12.48,33.33 -37.46,50.81 -24.97,17.48 -37.46,35.51 -37.46,54.09 0,24.03 15.74,36.05 47.23,36.05 32.58,0 61.35,-17.48 86.33,-52.44 16.29,-20.76 34.49,-56.55 54.58,-107.36 20.08,-50.82 35.01,-82.78 44.79,-95.89l0 -1.64c-86.88,71.02 -137.92,106.55 -153.12,106.55 -1.09,0 -2.17,-0.55 -3.26,-1.64 2.17,-6.56 28.23,-28.42 78.18,-65.57 55.39,-40.43 86.88,-65.02 94.49,-73.76 26.06,-30.59 50.49,-45.89 73.29,-45.89 14.12,0 21.17,2.18 21.17,6.55 0,6.56 -22.8,24.04 -68.4,52.45 -6.52,4.37 -9.78,41.52 -9.78,111.45 0,24.05 -6.51,49.19 -19.54,75.41 -13.03,26.22 -29.32,45.89 -48.87,59l0 1.64c51.04,-24.58 95.83,-53.26 134.38,-85.77 38.55,-32.51 59.99,-48.64 64.34,-48.64 1.08,1.1 1.62,2.19 1.62,3.29z"/>
   <path class="fil1" d="M12190.47 4608.02c0,13.11 -20.63,32.78 -61.9,59 -41.26,26.23 -70.03,39.34 -86.32,39.34 -14.12,0 -23.89,-1.64 -29.32,-4.92 -76.01,53.54 -137.92,80.31 -185.69,80.31 -53.21,0 -79.81,-20.21 -79.81,-60.64 0,-40.43 15.2,-78.12 45.6,-113.09l0 -1.64c-28.23,28.41 -45.6,42.62 -52.12,42.62 -1.09,0 -1.63,-0.55 -1.63,-1.64l0 -3.28c0,0 0.54,-2.19 1.63,-6.56 33.66,-36.07 79.27,-69.94 136.82,-101.63 61.9,-32.78 115.11,-49.71 159.63,-50.81l9.77 8.2c-1.08,1.09 -7.05,4.37 -17.91,9.83 -35.84,17.48 -78.73,51.9 -128.69,103.27 -55.38,56.82 -83.07,102.17 -83.07,136.04 0,15.3 7.6,22.94 22.81,22.94 42.34,0 92.85,-33.6 151.49,-101.07 14.11,-57.64 41.26,-95.07 81.43,-112.83 3.26,-7.92 4.89,-21.58 4.89,-41.52 0,-2.18 -0.81,-5.19 -2.44,-9.01 -1.63,-3.83 -2.45,-7.11 -2.45,-9.29 0,-4.37 3.26,-6.56 9.78,-6.56 9.77,0 18.19,6.83 25.24,20.76 7.06,13.94 10.59,26.5 10.59,37.43 0,39.06 -30.95,87.7 -92.84,146.7 3.26,1.09 6.52,1.64 9.77,1.64 24.98,0 53.21,-13.11 84.7,-39.34 35.83,-29.5 58.64,-45.34 68.41,-47.53 1.08,1.09 1.63,2.19 1.63,3.28zm482.14 -3.28c-40.19,57.91 -87.96,86.87 -143.34,86.87 -29.32,0 -46.15,-9.83 -50.49,-29.5 -135.74,79.76 -229.13,119.64 -280.17,119.64 -16.29,0 -24.43,-7.64 -24.43,-22.94 0,-6.56 26.33,-41.25 79,-104.08 52.66,-62.84 79.55,-103.54 80.63,-122.12l-4.9 -8.19 -9.77 -3.28c-34.75,14.21 -85.78,53 -153.1,116.38 -7.61,7.65 -13.03,11.48 -16.29,11.48 -4.35,0 -6.52,-2.19 -6.52,-6.56 0,-11.2 30.14,-40.17 90.4,-86.88 60.27,-46.98 103.44,-70.48 129.5,-70.48 30.41,0 45.61,15.3 45.61,46.17 0,56 -49.95,128.67 -149.86,217.72l0 0c27.14,-7.64 65.42,-23.76 114.84,-48.35 49.4,-24.58 83.88,-45.07 103.43,-61.46 4.34,-28.41 16.83,-60.11 37.46,-95.07 24.97,-39.34 49.4,-59.01 73.29,-59.01 13.03,0 19.55,7.65 19.55,23.22 0,22.95 -14.12,49.99 -42.35,80.86 -21.72,25.42 -45.61,46.45 -71.67,62.84 2.18,17.76 15.21,26.5 39.1,26.5 24.97,0 53.75,-12.57 86.32,-37.7 32.58,-25.13 49.96,-37.7 52.13,-37.7 1.09,0 1.63,0.55 1.63,1.64zm469.11 0c0,10.93 -37.48,46.99 -112.4,107.63 -54.3,43.98 -100.99,66.11 -140.08,66.11 -31.49,0 -47.23,-13.39 -47.23,-40.16 0,-19.94 7.6,-38.24 22.8,-54.91l-1.63 0c-68.42,63.38 -129.77,95.07 -184.06,95.07 -41.27,0 -61.9,-18.31 -61.9,-54.64 0,-31.96 15.2,-65.83 45.61,-101.07l-1.63 0c-16.29,17.48 -26.6,26.23 -30.95,26.23 -2.17,0 -3.8,-0.55 -4.88,-1.64l0 -3.28c0,0 0.54,-2.19 1.62,-6.56 27.15,-32.78 72.49,-66.39 136.01,-100.81 63.53,-34.42 114.3,-51.63 152.3,-51.63 38.01,0 57.01,14.21 57.01,42.62 0,6.55 -1.09,13.66 -3.26,21.3l1.63 0c36.92,-42.61 70.58,-63.92 100.99,-63.92 14.11,0 21.17,1.64 21.17,4.92 0,3.28 -27.69,38.79 -83.07,106.54 -55.38,67.48 -83.07,112.28 -83.07,134.41l3.26 8.19c3.26,1.09 7.06,1.64 11.4,1.64 22.81,0 60.54,-22.67 113.2,-68.02 52.67,-45.35 81.17,-68.56 85.53,-69.66 1.08,1.1 1.63,1.64 1.63,1.64zm-184.07 -70.49c0,-19.66 -10.31,-29.5 -30.95,-29.5 -28.23,0 -75.19,31.69 -140.9,95.06 -65.69,63.39 -98.54,108.19 -98.54,134.41 0,13.12 7.06,19.67 21.17,19.67 31.49,0 80.9,-29.5 148.24,-88.5 67.32,-59.01 100.98,-102.73 100.98,-131.14z"/>
  </g>
 </g>
</svg>
